# xmcd
# 
# Track frame offsets:
#     150
#     18907
#     38867
#     57597
#     79415
#     98057
#     111446
# 
# Disc length: 1783
# 
# Revision: 0
# Processed by: cddbd v1.5.2PL0 Copyright (c) Steve Scherf et al.
# Submitted via: BonkEnc v1.0.15
# 
DISCID=5806f507
DTITLE=David and Diane Benson - Beginnings
DYEAR=2008
DGENRE=Worship
TTITLE0=Holy is the Lord - He is Exalted
TTITLE1=Children of God Medley
TTITLE2=Lion of Judah
TTITLE3=Above All
TTITLE4=The Lighthouse
TTITLE5=Carry On
TTITLE6=Touch Through Me
EXTD=David and Diane Benson\n22 Chase Hill Rd.\nAndover, NH 03216\ndbministries@tds.net
EXTT0=
EXTT1=
EXTT2=
EXTT3=
EXTT4=
EXTT5=
EXTT6=
PLAYORDER=
